<svg xmlns="http://www.w3.org/2000/svg" viewBox="17.873 27.94 111.9 90.06"><path d="M26.1892 104.968L26.1814 104.957C20.4887 96.7894 17.873 85.872 17.873 72.64C17.873 59.5335 20.534 48.6853 26.307 40.5207C32.3699 31.9459 41.8209 27.94 53.773 27.94C65.7199 27.94 75.1679 31.9425 81.2311 40.5095C84.2679 44.747 86.4557 49.7078 87.8579 55.332V29.59H129.738V118H99.1879V57.83H88.4205C89.3389 62.3762 89.783 67.3224 89.783 72.64C89.783 85.8816 87.1267 96.808 81.3491 104.979C75.2809 113.561 65.7872 117.56 53.773 117.56C41.7588 117.56 32.2652 113.561 26.197 104.979L26.1892 104.968ZM103.188 53.83V114H125.738V33.59H91.8579V53.83H103.188ZM77.973 42.83C72.8397 35.57 64.773 31.94 53.773 31.94C42.773 31.94 34.7063 35.57 29.573 42.83C24.4397 50.09 21.873 60.0267 21.873 72.64C21.873 85.4 24.403 95.41 29.463 102.67C34.5964 109.93 42.6997 113.56 53.773 113.56C64.8464 113.56 72.9497 109.93 78.083 102.67C83.2163 95.41 85.783 85.4 85.783 72.64C85.783 60.0267 83.1797 50.09 77.973 42.83ZM58.6391 59.0557L58.6338 59.0422C58.2126 57.9782 57.6686 57.3871 57.0666 57.0166C56.4247 56.6216 55.4062 56.29 53.773 56.29C52.1399 56.29 51.1213 56.6216 50.4794 57.0166C49.8775 57.3871 49.3334 57.9782 48.9122 59.0422L48.9069 59.0557L48.9015 59.0692C47.7957 61.8043 47.103 66.2179 47.103 72.64C47.103 79.1869 47.7531 83.7349 48.8095 86.585C49.2118 87.5586 49.7357 88.117 50.3457 88.4799C51.0137 88.8773 52.0782 89.21 53.773 89.21C55.4707 89.21 56.5149 88.8763 57.1536 88.4914C57.7386 88.1389 58.241 87.5928 58.6176 86.6094L58.6256 86.5886L58.6338 86.5678C59.7497 83.7488 60.443 79.2141 60.443 72.64C60.443 66.2179 59.7503 61.8043 58.6446 59.0692L58.6391 59.0557ZM45.083 88.04C43.763 84.52 43.103 79.3867 43.103 72.64C43.103 66.04 43.7997 61.0167 45.193 57.57C46.5863 54.05 49.4464 52.29 53.773 52.29C58.0997 52.29 60.9597 54.05 62.353 57.57C63.7463 61.0167 64.443 66.04 64.443 72.64C64.443 79.3867 63.7463 84.52 62.353 88.04C61.033 91.4867 58.173 93.21 53.773 93.21C49.373 93.21 46.4763 91.4867 45.083 88.04Z" fill="#ffffff"></path></svg>