<svg xmlns="http://www.w3.org/2000/svg" viewBox="7.32906 27.94 135.7 89.62"><path d="M15.6452 104.968L15.6375 104.957C9.94479 96.7894 7.32906 85.872 7.32906 72.64C7.32906 59.5335 9.99005 48.6853 15.763 40.5207C21.826 31.9459 31.277 27.94 43.2291 27.94C55.176 27.94 64.6239 31.9425 70.6872 40.5095C74.9999 46.5276 77.6005 54.0046 78.6703 62.7689L78.7463 60.5153C78.9826 53.5025 80.528 47.3831 83.6276 42.3832C86.6378 37.455 90.6505 33.744 95.6601 31.4057C100.503 29.0729 105.827 27.94 111.564 27.94C121.184 27.94 129.117 30.3257 134.546 35.845C139.782 41.1686 142.294 48.0196 142.294 56.03C142.294 64.627 139.379 72.6154 133.773 79.9083C130.664 84.0059 127.109 87.8388 123.116 91.41H143.064V116.9H78.964V94.7825L80.497 93.5814C87.5738 88.0366 93.3353 83.2879 97.7995 79.3277C102.157 75.4625 105.762 71.5363 108.645 67.557C111.409 63.6706 112.514 60.3667 112.514 57.57C112.514 55.8176 112.105 55.0072 111.791 54.6307L111.748 54.579L111.707 54.5258L111.705 54.5235C111.608 54.3985 111.368 54.09 110.244 54.09C109.52 54.09 109.122 54.2789 108.663 54.9962L108.643 55.0277L108.622 55.0588C108.108 55.8301 107.577 57.4669 107.643 60.5649L107.73 64.65H78.8746C79.119 67.2102 79.2391 69.8749 79.2391 72.64C79.2391 85.8816 76.5828 96.808 70.8051 104.979C64.7369 113.561 55.2433 117.56 43.2291 117.56C31.2149 117.56 21.7212 113.561 15.653 104.979L15.6452 104.968ZM111.564 95.41C113.43 94.1184 115.219 92.785 116.931 91.41C122.217 87.1642 126.772 82.5209 130.594 77.48C135.727 70.8067 138.294 63.6567 138.294 56.03C138.294 48.9167 136.094 43.1233 131.694 38.65C127.294 34.1767 120.584 31.94 111.564 31.94C106.357 31.94 101.627 32.9667 97.374 35.02C93.1207 37 89.674 40.1533 87.034 44.48C84.954 47.8311 83.6251 51.8878 83.0473 56.65C82.8918 57.9322 82.7907 59.2655 82.744 60.65H103.644C103.635 60.2445 103.635 59.8507 103.644 59.4685C103.709 56.6025 104.259 54.3929 105.294 52.84C106.467 51.0067 108.117 50.09 110.244 50.09C112.297 50.09 113.837 50.75 114.864 52.07C115.964 53.39 116.514 55.2233 116.514 57.57C116.514 61.4567 114.974 65.5633 111.894 69.89C108.814 74.1433 105.001 78.2867 100.454 82.32C95.9073 86.3533 90.0773 91.1567 82.964 96.73V112.9H139.064V95.41H111.564ZM67.4291 42.83C62.2957 35.57 54.2291 31.94 43.2291 31.94C32.2291 31.94 24.1624 35.57 19.0291 42.83C13.8957 50.09 11.3291 60.0267 11.3291 72.64C11.3291 85.4 13.8591 95.41 18.9191 102.67C24.0524 109.93 32.1557 113.56 43.2291 113.56C54.3024 113.56 62.4057 109.93 67.5391 102.67C72.6724 95.41 75.2391 85.4 75.2391 72.64C75.2391 60.0267 72.6357 50.09 67.4291 42.83ZM48.0952 59.0557L48.0898 59.0422C47.6687 57.9782 47.1246 57.3871 46.5227 57.0166C45.8808 56.6216 44.8622 56.29 43.2291 56.29C41.5959 56.29 40.5773 56.6216 39.9355 57.0166C39.3335 57.3871 38.7895 57.9782 38.3683 59.0422L38.3629 59.0557L38.3575 59.0692C37.2518 61.8043 36.5591 66.2179 36.5591 72.64C36.5591 79.1869 37.2091 83.7349 38.2655 86.585C38.6678 87.5586 39.1918 88.117 39.8017 88.4799C40.4698 88.8773 41.5343 89.21 43.2291 89.21C44.9268 89.21 45.971 88.8763 46.6096 88.4914C47.1947 88.1389 47.697 87.5928 48.0736 86.6094L48.0816 86.5886L48.0898 86.5678C49.2057 83.7488 49.8991 79.2141 49.8991 72.64C49.8991 66.2179 49.2063 61.8043 48.1006 59.0692L48.0952 59.0557ZM34.5391 88.04C33.2191 84.52 32.5591 79.3867 32.5591 72.64C32.5591 66.04 33.2557 61.0167 34.6491 57.57C36.0424 54.05 38.9024 52.29 43.2291 52.29C47.5557 52.29 50.4157 54.05 51.8091 57.57C53.2024 61.0167 53.8991 66.04 53.8991 72.64C53.8991 79.3867 53.2024 84.52 51.8091 88.04C50.4891 91.4867 47.6291 93.21 43.2291 93.21C38.8291 93.21 35.9324 91.4867 34.5391 88.04Z" fill="#ffffff"></path></svg>