<svg xmlns="http://www.w3.org/2000/svg" viewBox="5.0732 27.83 137.3 90.83"><path d="M13.3893 104.968L13.3816 104.957C7.68893 96.7894 5.0732 85.872 5.0732 72.64C5.0732 59.5335 7.73419 48.6853 13.5072 40.5207C19.5701 31.9459 29.0211 27.94 40.9732 27.94C52.9201 27.94 62.3681 31.9425 68.4313 40.5095C74.2838 48.6761 76.9832 59.5294 76.9832 72.64C76.9832 85.8816 74.3269 96.808 68.5492 104.979C62.4811 113.561 52.9874 117.56 40.9732 117.56C28.959 117.56 19.4653 113.561 13.3972 104.979L13.3893 104.968ZM45.8393 59.0557L45.834 59.0422C45.4128 57.9782 44.8688 57.3871 44.2668 57.0166C43.6249 56.6216 42.6063 56.29 40.9732 56.29C39.3401 56.29 38.3215 56.6216 37.6796 57.0166C37.0776 57.3871 36.5336 57.9782 36.1124 59.0422L36.1071 59.0557L36.1016 59.0692C34.9959 61.8043 34.3032 66.2179 34.3032 72.64C34.3032 79.1869 34.9533 83.7349 36.0097 86.585C36.412 87.5586 36.9359 88.117 37.5459 88.4799C38.2139 88.8773 39.2784 89.21 40.9732 89.21C42.6709 89.21 43.7151 88.8763 44.3538 88.4914C44.9388 88.1389 45.4412 87.5928 45.8178 86.6094L45.8258 86.5886L45.834 86.5678C46.9498 83.7488 47.6432 79.2141 47.6432 72.64C47.6432 66.2179 46.9505 61.8043 45.8448 59.0692L45.8393 59.0557ZM32.2832 88.04C30.9632 84.52 30.3032 79.3867 30.3032 72.64C30.3032 66.04 30.9999 61.0167 32.3932 57.57C33.7865 54.05 36.6465 52.29 40.9732 52.29C45.2999 52.29 48.1599 54.05 49.5532 57.57C50.9465 61.0167 51.6432 66.04 51.6432 72.64C51.6432 79.3867 50.9465 84.52 49.5532 88.04C48.2332 91.4867 45.3732 93.21 40.9732 93.21C36.5732 93.21 33.6765 91.4867 32.2832 88.04ZM78.214 61.57L78.3606 57.4285C78.6811 48.3753 81.5258 40.8976 87.3552 35.5913C93.1405 30.251 100.968 27.83 110.298 27.83C116.382 27.83 121.819 28.8927 126.457 31.2025C131.078 33.3947 134.741 36.5178 137.245 40.6234C139.716 44.6015 140.918 49.0785 140.918 53.94C140.918 59.5692 139.545 64.5356 136.404 68.438L136.389 68.4569L136.374 68.4755C135.31 69.7643 134.171 70.9195 132.954 71.9283C135.05 73.4011 136.845 75.1558 138.292 77.2135C141.076 81.1705 142.348 85.9239 142.348 91.23C142.348 96.4869 141.131 101.29 138.582 105.508C136.022 109.745 132.336 112.995 127.681 115.281C122.983 117.587 117.549 118.66 111.508 118.66C101.716 118.66 93.4598 116.305 87.1883 111.15L87.1652 111.131L87.1425 111.112C80.7311 105.68 77.7173 97.6129 77.4793 87.696L77.381 83.6H98.1581V61.57H78.214ZM107.219 59.9422C108.907 59.8676 110.177 59.5336 111.127 59.0634C111.347 58.9479 111.908 58.5948 111.908 56.58C111.908 54.8789 111.493 54.4119 111.43 54.3484L111.384 54.3028L111.34 54.2558C111.136 54.0382 110.772 53.76 109.748 53.76C108.753 53.76 108.523 54.0273 108.359 54.2695C107.869 55.0321 107.471 56.1578 107.359 57.8361L107.219 59.9422ZM105.018 52.07C106.045 50.53 107.621 49.76 109.748 49.76C111.655 49.76 113.158 50.3467 114.258 51.52C115.358 52.62 115.908 54.3067 115.908 56.58C115.908 59.5867 114.918 61.6033 112.938 62.63C111.091 63.5535 108.831 63.9953 106.158 63.9554C106.072 63.9541 105.985 63.9523 105.898 63.95H102.158V81.44H106.008C110.041 81.44 112.938 82.1 114.698 83.42C116.531 84.74 117.448 86.7933 117.448 89.58C117.448 91.78 116.825 93.54 115.578 94.86C114.405 96.18 112.755 96.84 110.628 96.84C107.841 96.84 105.751 96.0333 104.358 94.42C103.23 93.114 102.607 91.3754 102.488 89.2044C102.46 88.6935 102.46 88.1587 102.488 87.6H81.4781C81.5114 88.9871 81.6026 90.3204 81.7518 91.6C82.5883 98.7769 85.2471 104.264 89.7281 108.06C95.0815 112.46 102.341 114.66 111.508 114.66C117.081 114.66 121.885 113.67 125.918 111.69C129.951 109.71 133.031 106.96 135.158 103.44C137.285 99.92 138.348 95.85 138.348 91.23C138.348 83.5727 135.349 77.9479 129.351 74.3555C128.1 73.6062 126.718 72.9454 125.206 72.3729C125.15 72.3518 125.094 72.3309 125.038 72.31V71.87C125.101 71.8491 125.163 71.8279 125.225 71.8062C126.627 71.3193 127.96 70.6332 129.223 69.748C130.668 68.7358 132.023 67.4631 133.288 65.93C135.708 62.9233 136.918 58.9267 136.918 53.94C136.918 49.76 135.891 46.02 133.838 42.72C131.785 39.3467 128.741 36.7067 124.708 34.8C120.748 32.82 115.945 31.83 110.298 31.83C101.645 31.83 94.8981 34.0667 90.0581 38.54C86.0287 42.2031 83.575 47.2131 82.6968 53.57C82.5201 54.8488 82.4072 56.1822 82.3581 57.57H103.368C103.515 55.37 104.065 53.5367 105.018 52.07ZM106.601 85.4456L106.483 87.7998C106.368 90.099 106.884 91.2253 107.385 91.8055C107.801 92.287 108.623 92.84 110.628 92.84C111.866 92.84 112.328 92.4954 112.588 92.2026L112.629 92.1574L112.67 92.1135C113.073 91.6871 113.448 90.9874 113.448 89.58C113.448 87.7426 112.904 87.057 112.361 86.6661L112.329 86.6434L112.298 86.62C111.642 86.128 109.995 85.5103 106.601 85.4456ZM16.7732 42.83C11.6399 50.09 9.0732 60.0267 9.0732 72.64C9.0732 85.4 11.6032 95.41 16.6632 102.67C21.7965 109.93 29.8999 113.56 40.9732 113.56C52.0465 113.56 60.1499 109.93 65.2832 102.67C70.4165 95.41 72.9832 85.4 72.9832 72.64C72.9832 60.0267 70.3799 50.09 65.1732 42.83C60.0399 35.57 51.9732 31.94 40.9732 31.94C29.9732 31.94 21.9065 35.57 16.7732 42.83Z" fill="#ffffff"></path></svg>